<?xml version="1.0" encoding="UTF-8"?>
<svg xmlns="http://www.w3.org/2000/svg" xmlns:xlink="http://www.w3.org/1999/xlink" width="512" height="512" viewBox="0 0 512 512">
<path fill="none" stroke-width="14" stroke-linecap="round" stroke-linejoin="round" stroke="rgb(16.078431%, 16.862745%, 20%)" stroke-opacity="1" stroke-miterlimit="10" d="M 461 256 C 461 369.21875 369.21875 461 256 461 C 142.78125 461 51 369.21875 51 256 C 51 142.78125 142.78125 51 256 51 C 369.21875 51 461 142.78125 461 256 Z M 461 256 "/>
<path fill="none" stroke-width="8" stroke-linecap="round" stroke-linejoin="round" stroke="rgb(16.078431%, 16.862745%, 20%)" stroke-opacity="0.16" stroke-miterlimit="10" d="M 112 356 L 256 340 "/>
<path fill="none" stroke-width="8" stroke-linecap="round" stroke-linejoin="round" stroke="rgb(16.078431%, 16.862745%, 20%)" stroke-opacity="0.16" stroke-miterlimit="10" d="M 112 356 L 356 146 "/>
<path fill="none" stroke-width="8" stroke-linecap="round" stroke-linejoin="round" stroke="rgb(16.078431%, 16.862745%, 20%)" stroke-opacity="0.16" stroke-miterlimit="10" d="M 112 356 L 400 356 "/>
<path fill="none" stroke-width="8" stroke-linecap="round" stroke-linejoin="round" stroke="rgb(16.078431%, 16.862745%, 20%)" stroke-opacity="0.16" stroke-miterlimit="10" d="M 156 146 L 356 146 "/>
<path fill="none" stroke-width="8" stroke-linecap="round" stroke-linejoin="round" stroke="rgb(16.078431%, 16.862745%, 20%)" stroke-opacity="0.16" stroke-miterlimit="10" d="M 156 146 L 400 356 "/>
<path fill="none" stroke-width="8" stroke-linecap="round" stroke-linejoin="round" stroke="rgb(16.078431%, 16.862745%, 20%)" stroke-opacity="0.16" stroke-miterlimit="10" d="M 256 340 L 400 356 "/>
<path fill="none" stroke-width="31" stroke-linecap="round" stroke-linejoin="round" stroke="rgb(16.078431%, 16.862745%, 20%)" stroke-opacity="1" stroke-miterlimit="10" d="M 112 356 L 156 146 "/>
<path fill="none" stroke-width="31" stroke-linecap="round" stroke-linejoin="round" stroke="rgb(16.078431%, 16.862745%, 20%)" stroke-opacity="1" stroke-miterlimit="10" d="M 156 146 L 256 340 "/>
<path fill="none" stroke-width="31" stroke-linecap="round" stroke-linejoin="round" stroke="rgb(16.078431%, 16.862745%, 20%)" stroke-opacity="1" stroke-miterlimit="10" d="M 256 340 L 356 146 "/>
<path fill="none" stroke-width="31" stroke-linecap="round" stroke-linejoin="round" stroke="rgb(16.078431%, 16.862745%, 20%)" stroke-opacity="1" stroke-miterlimit="10" d="M 356 146 L 400 356 "/>
<path fill="none" stroke-width="13" stroke-linecap="round" stroke-linejoin="round" stroke="rgb(21.960784%, 59.607843%, 14.901961%)" stroke-opacity="1" stroke-miterlimit="10" d="M 112 356 L 156 146 "/>
<path fill="none" stroke-width="13" stroke-linecap="round" stroke-linejoin="round" stroke="rgb(58.431373%, 34.509804%, 69.803922%)" stroke-opacity="1" stroke-miterlimit="10" d="M 156 146 L 256 340 "/>
<path fill="none" stroke-width="13" stroke-linecap="round" stroke-linejoin="round" stroke="rgb(25.098039%, 38.823529%, 84.705882%)" stroke-opacity="1" stroke-miterlimit="10" d="M 256 340 L 356 146 "/>
<path fill="none" stroke-width="13" stroke-linecap="round" stroke-linejoin="round" stroke="rgb(79.607843%, 23.529412%, 20%)" stroke-opacity="1" stroke-miterlimit="10" d="M 356 146 L 400 356 "/>
<path fill-rule="nonzero" fill="rgb(21.960784%, 59.607843%, 14.901961%)" fill-opacity="1" stroke-width="9" stroke-linecap="round" stroke-linejoin="round" stroke="rgb(16.078431%, 16.862745%, 20%)" stroke-opacity="1" stroke-miterlimit="10" d="M 139 356 C 139 370.910156 126.910156 383 112 383 C 97.089844 383 85 370.910156 85 356 C 85 341.089844 97.089844 329 112 329 C 126.910156 329 139 341.089844 139 356 Z M 139 356 "/>
<path fill-rule="nonzero" fill="rgb(58.431373%, 34.509804%, 69.803922%)" fill-opacity="1" stroke-width="9" stroke-linecap="round" stroke-linejoin="round" stroke="rgb(16.078431%, 16.862745%, 20%)" stroke-opacity="1" stroke-miterlimit="10" d="M 185 146 C 185 162.015625 172.015625 175 156 175 C 139.984375 175 127 162.015625 127 146 C 127 129.984375 139.984375 117 156 117 C 172.015625 117 185 129.984375 185 146 Z M 185 146 "/>
<path fill-rule="nonzero" fill="rgb(25.098039%, 38.823529%, 84.705882%)" fill-opacity="1" stroke-width="9" stroke-linecap="round" stroke-linejoin="round" stroke="rgb(16.078431%, 16.862745%, 20%)" stroke-opacity="1" stroke-miterlimit="10" d="M 285 340 C 285 356.015625 272.015625 369 256 369 C 239.984375 369 227 356.015625 227 340 C 227 323.984375 239.984375 311 256 311 C 272.015625 311 285 323.984375 285 340 Z M 285 340 "/>
<path fill-rule="nonzero" fill="rgb(79.607843%, 23.529412%, 20%)" fill-opacity="1" stroke-width="9" stroke-linecap="round" stroke-linejoin="round" stroke="rgb(16.078431%, 16.862745%, 20%)" stroke-opacity="1" stroke-miterlimit="10" d="M 385 146 C 385 162.015625 372.015625 175 356 175 C 339.984375 175 327 162.015625 327 146 C 327 129.984375 339.984375 117 356 117 C 372.015625 117 385 129.984375 385 146 Z M 385 146 "/>
<path fill-rule="nonzero" fill="rgb(21.960784%, 59.607843%, 14.901961%)" fill-opacity="1" stroke-width="9" stroke-linecap="round" stroke-linejoin="round" stroke="rgb(16.078431%, 16.862745%, 20%)" stroke-opacity="1" stroke-miterlimit="10" d="M 427 356 C 427 370.910156 414.910156 383 400 383 C 385.089844 383 373 370.910156 373 356 C 373 341.089844 385.089844 329 400 329 C 414.910156 329 427 341.089844 427 356 Z M 427 356 "/>
</svg>
